<mxfile host="app.diagrams.net" modified="2023-09-25T06:51:41.494Z" agent="Mozilla/5.0 (Windows NT 10.0; Win64; x64; rv:109.0) Gecko/20100101 Firefox/118.0" etag="MFFOvGxSD-bfhZdy4Dq1" version="21.7.4" type="github">
  <diagram id="C5RBs43oDa-KdzZeNtuy" name="Page-1">
    <mxGraphModel dx="1909" dy="964" grid="1" gridSize="10" guides="1" tooltips="1" connect="1" arrows="1" fold="1" page="1" pageScale="1" pageWidth="827" pageHeight="1169" math="0" shadow="0">
      <root>
        <mxCell id="WIyWlLk6GJQsqaUBKTNV-0" />
        <mxCell id="WIyWlLk6GJQsqaUBKTNV-1" parent="WIyWlLk6GJQsqaUBKTNV-0" />
        <mxCell id="NTFk5L0waF7ZVPVH3w1j-1" style="edgeStyle=orthogonalEdgeStyle;rounded=0;orthogonalLoop=1;jettySize=auto;html=1;entryX=0.5;entryY=0;entryDx=0;entryDy=0;" parent="WIyWlLk6GJQsqaUBKTNV-1" source="NTFk5L0waF7ZVPVH3w1j-0" target="NTFk5L0waF7ZVPVH3w1j-27" edge="1">
          <mxGeometry relative="1" as="geometry">
            <mxPoint x="400" y="160" as="targetPoint" />
          </mxGeometry>
        </mxCell>
        <mxCell id="NTFk5L0waF7ZVPVH3w1j-0" value="&lt;div&gt;&lt;font style=&quot;font-size: 18px;&quot;&gt;Start&lt;/font&gt;&lt;/div&gt;" style="ellipse;whiteSpace=wrap;html=1;" parent="WIyWlLk6GJQsqaUBKTNV-1" vertex="1">
          <mxGeometry x="330" width="120" height="80" as="geometry" />
        </mxCell>
        <mxCell id="NTFk5L0waF7ZVPVH3w1j-28" style="edgeStyle=orthogonalEdgeStyle;rounded=0;orthogonalLoop=1;jettySize=auto;html=1;entryX=0.5;entryY=0;entryDx=0;entryDy=0;" parent="WIyWlLk6GJQsqaUBKTNV-1" source="NTFk5L0waF7ZVPVH3w1j-27" target="VjtKjrZETDWxhtemE6Uw-12" edge="1">
          <mxGeometry relative="1" as="geometry">
            <mxPoint x="400" y="280" as="targetPoint" />
          </mxGeometry>
        </mxCell>
        <mxCell id="NTFk5L0waF7ZVPVH3w1j-27" value="Display bus" style="rounded=1;whiteSpace=wrap;html=1;fillColor=#dae8fc;strokeColor=#6c8ebf;" parent="WIyWlLk6GJQsqaUBKTNV-1" vertex="1">
          <mxGeometry x="345" y="160" width="90" height="50" as="geometry" />
        </mxCell>
        <mxCell id="yMvP8_BPe6pXxx1UUFUf-80" style="edgeStyle=orthogonalEdgeStyle;rounded=0;orthogonalLoop=1;jettySize=auto;html=1;entryX=0;entryY=0.5;entryDx=0;entryDy=0;" edge="1" parent="WIyWlLk6GJQsqaUBKTNV-1" source="VjtKjrZETDWxhtemE6Uw-12" target="VjtKjrZETDWxhtemE6Uw-46">
          <mxGeometry relative="1" as="geometry" />
        </mxCell>
        <mxCell id="yMvP8_BPe6pXxx1UUFUf-95" style="edgeStyle=orthogonalEdgeStyle;rounded=0;orthogonalLoop=1;jettySize=auto;html=1;exitX=0.5;exitY=1;exitDx=0;exitDy=0;entryX=0.5;entryY=0;entryDx=0;entryDy=0;" edge="1" parent="WIyWlLk6GJQsqaUBKTNV-1" source="VjtKjrZETDWxhtemE6Uw-12" target="yMvP8_BPe6pXxx1UUFUf-94">
          <mxGeometry relative="1" as="geometry" />
        </mxCell>
        <mxCell id="yMvP8_BPe6pXxx1UUFUf-113" style="edgeStyle=orthogonalEdgeStyle;rounded=0;orthogonalLoop=1;jettySize=auto;html=1;exitX=0;exitY=0.5;exitDx=0;exitDy=0;entryX=1;entryY=0.5;entryDx=0;entryDy=0;" edge="1" parent="WIyWlLk6GJQsqaUBKTNV-1" source="VjtKjrZETDWxhtemE6Uw-12" target="NTFk5L0waF7ZVPVH3w1j-9">
          <mxGeometry relative="1" as="geometry" />
        </mxCell>
        <mxCell id="VjtKjrZETDWxhtemE6Uw-12" value="&lt;div&gt;Which role&lt;/div&gt;" style="rounded=1;whiteSpace=wrap;html=1;fillColor=#ffe6cc;strokeColor=#d79b00;" parent="WIyWlLk6GJQsqaUBKTNV-1" vertex="1">
          <mxGeometry x="342.5" y="290" width="95" height="60" as="geometry" />
        </mxCell>
        <mxCell id="yMvP8_BPe6pXxx1UUFUf-114" style="edgeStyle=orthogonalEdgeStyle;rounded=0;orthogonalLoop=1;jettySize=auto;html=1;entryX=1;entryY=0.5;entryDx=0;entryDy=0;" edge="1" parent="WIyWlLk6GJQsqaUBKTNV-1" source="NTFk5L0waF7ZVPVH3w1j-9" target="yMvP8_BPe6pXxx1UUFUf-112">
          <mxGeometry relative="1" as="geometry" />
        </mxCell>
        <mxCell id="NTFk5L0waF7ZVPVH3w1j-9" value="&lt;div&gt;&lt;font style=&quot;font-size: 18px;&quot;&gt;0&lt;/font&gt;&lt;/div&gt;" style="text;html=1;strokeColor=none;fillColor=none;align=center;verticalAlign=middle;whiteSpace=wrap;rounded=0;" parent="WIyWlLk6GJQsqaUBKTNV-1" vertex="1">
          <mxGeometry x="240" y="310" width="10" height="20" as="geometry" />
        </mxCell>
        <mxCell id="yMvP8_BPe6pXxx1UUFUf-81" style="edgeStyle=orthogonalEdgeStyle;rounded=0;orthogonalLoop=1;jettySize=auto;html=1;entryX=0;entryY=0.5;entryDx=0;entryDy=0;" edge="1" parent="WIyWlLk6GJQsqaUBKTNV-1" source="VjtKjrZETDWxhtemE6Uw-46" target="VjtKjrZETDWxhtemE6Uw-55">
          <mxGeometry relative="1" as="geometry" />
        </mxCell>
        <mxCell id="VjtKjrZETDWxhtemE6Uw-46" value="&lt;font style=&quot;font-size: 18px;&quot;&gt;1&lt;/font&gt;" style="text;html=1;strokeColor=none;fillColor=none;align=center;verticalAlign=middle;whiteSpace=wrap;rounded=0;" parent="WIyWlLk6GJQsqaUBKTNV-1" vertex="1">
          <mxGeometry x="492.5" y="310" width="15" height="20" as="geometry" />
        </mxCell>
        <mxCell id="yMvP8_BPe6pXxx1UUFUf-35" style="edgeStyle=orthogonalEdgeStyle;rounded=0;orthogonalLoop=1;jettySize=auto;html=1;exitX=0.5;exitY=1;exitDx=0;exitDy=0;entryX=0.5;entryY=0;entryDx=0;entryDy=0;entryPerimeter=0;" edge="1" parent="WIyWlLk6GJQsqaUBKTNV-1" source="VjtKjrZETDWxhtemE6Uw-55" target="yMvP8_BPe6pXxx1UUFUf-30">
          <mxGeometry relative="1" as="geometry" />
        </mxCell>
        <mxCell id="VjtKjrZETDWxhtemE6Uw-55" value="Inspector" style="rounded=1;whiteSpace=wrap;html=1;fillColor=#ffe6cc;strokeColor=#d79b00;" parent="WIyWlLk6GJQsqaUBKTNV-1" vertex="1">
          <mxGeometry x="800" y="285" width="80" height="70" as="geometry" />
        </mxCell>
        <mxCell id="yMvP8_BPe6pXxx1UUFUf-36" style="edgeStyle=orthogonalEdgeStyle;rounded=0;orthogonalLoop=1;jettySize=auto;html=1;exitX=0.5;exitY=1;exitDx=0;exitDy=0;exitPerimeter=0;entryX=0.5;entryY=0;entryDx=0;entryDy=0;entryPerimeter=0;" edge="1" parent="WIyWlLk6GJQsqaUBKTNV-1" source="yMvP8_BPe6pXxx1UUFUf-30" target="yMvP8_BPe6pXxx1UUFUf-31">
          <mxGeometry relative="1" as="geometry" />
        </mxCell>
        <mxCell id="yMvP8_BPe6pXxx1UUFUf-43" style="edgeStyle=orthogonalEdgeStyle;rounded=0;orthogonalLoop=1;jettySize=auto;html=1;exitX=1;exitY=0.5;exitDx=0;exitDy=0;exitPerimeter=0;entryX=0;entryY=0.5;entryDx=0;entryDy=0;" edge="1" parent="WIyWlLk6GJQsqaUBKTNV-1" source="yMvP8_BPe6pXxx1UUFUf-30" target="yMvP8_BPe6pXxx1UUFUf-39">
          <mxGeometry relative="1" as="geometry" />
        </mxCell>
        <mxCell id="yMvP8_BPe6pXxx1UUFUf-30" value="choice == 1" style="strokeWidth=2;html=1;shape=mxgraph.flowchart.decision;whiteSpace=wrap;fillColor=#dae8fc;strokeColor=#6c8ebf;" vertex="1" parent="WIyWlLk6GJQsqaUBKTNV-1">
          <mxGeometry x="805" y="380" width="70" height="70" as="geometry" />
        </mxCell>
        <mxCell id="yMvP8_BPe6pXxx1UUFUf-37" style="edgeStyle=orthogonalEdgeStyle;rounded=0;orthogonalLoop=1;jettySize=auto;html=1;exitX=0.5;exitY=1;exitDx=0;exitDy=0;exitPerimeter=0;entryX=0.5;entryY=0;entryDx=0;entryDy=0;entryPerimeter=0;" edge="1" parent="WIyWlLk6GJQsqaUBKTNV-1" source="yMvP8_BPe6pXxx1UUFUf-31" target="yMvP8_BPe6pXxx1UUFUf-32">
          <mxGeometry relative="1" as="geometry" />
        </mxCell>
        <mxCell id="yMvP8_BPe6pXxx1UUFUf-47" style="edgeStyle=orthogonalEdgeStyle;rounded=0;orthogonalLoop=1;jettySize=auto;html=1;exitX=1;exitY=0.5;exitDx=0;exitDy=0;exitPerimeter=0;entryX=0;entryY=0.5;entryDx=0;entryDy=0;" edge="1" parent="WIyWlLk6GJQsqaUBKTNV-1" source="yMvP8_BPe6pXxx1UUFUf-31" target="yMvP8_BPe6pXxx1UUFUf-42">
          <mxGeometry relative="1" as="geometry" />
        </mxCell>
        <mxCell id="yMvP8_BPe6pXxx1UUFUf-31" value="choice == 2" style="strokeWidth=2;html=1;shape=mxgraph.flowchart.decision;whiteSpace=wrap;fillColor=#dae8fc;strokeColor=#6c8ebf;" vertex="1" parent="WIyWlLk6GJQsqaUBKTNV-1">
          <mxGeometry x="805" y="470" width="70" height="70" as="geometry" />
        </mxCell>
        <mxCell id="yMvP8_BPe6pXxx1UUFUf-38" style="edgeStyle=orthogonalEdgeStyle;rounded=0;orthogonalLoop=1;jettySize=auto;html=1;exitX=0.5;exitY=1;exitDx=0;exitDy=0;exitPerimeter=0;entryX=0.5;entryY=0;entryDx=0;entryDy=0;entryPerimeter=0;" edge="1" parent="WIyWlLk6GJQsqaUBKTNV-1" source="yMvP8_BPe6pXxx1UUFUf-32" target="yMvP8_BPe6pXxx1UUFUf-33">
          <mxGeometry relative="1" as="geometry" />
        </mxCell>
        <mxCell id="yMvP8_BPe6pXxx1UUFUf-48" style="edgeStyle=orthogonalEdgeStyle;rounded=0;orthogonalLoop=1;jettySize=auto;html=1;exitX=1;exitY=0.5;exitDx=0;exitDy=0;exitPerimeter=0;entryX=0;entryY=0.5;entryDx=0;entryDy=0;" edge="1" parent="WIyWlLk6GJQsqaUBKTNV-1" source="yMvP8_BPe6pXxx1UUFUf-32" target="yMvP8_BPe6pXxx1UUFUf-41">
          <mxGeometry relative="1" as="geometry" />
        </mxCell>
        <mxCell id="yMvP8_BPe6pXxx1UUFUf-32" value="&lt;div&gt;choice == 3&lt;/div&gt;" style="strokeWidth=2;html=1;shape=mxgraph.flowchart.decision;whiteSpace=wrap;fillColor=#dae8fc;strokeColor=#6c8ebf;" vertex="1" parent="WIyWlLk6GJQsqaUBKTNV-1">
          <mxGeometry x="805" y="560" width="70" height="70" as="geometry" />
        </mxCell>
        <mxCell id="yMvP8_BPe6pXxx1UUFUf-84" style="edgeStyle=orthogonalEdgeStyle;rounded=0;orthogonalLoop=1;jettySize=auto;html=1;exitX=0;exitY=0.5;exitDx=0;exitDy=0;exitPerimeter=0;entryX=0.5;entryY=1;entryDx=0;entryDy=0;" edge="1" parent="WIyWlLk6GJQsqaUBKTNV-1">
          <mxGeometry relative="1" as="geometry">
            <mxPoint x="826.5" y="680" as="sourcePoint" />
            <mxPoint x="749.9999999999995" y="370" as="targetPoint" />
          </mxGeometry>
        </mxCell>
        <mxCell id="yMvP8_BPe6pXxx1UUFUf-33" value="&lt;div&gt;choice == 0&lt;br&gt;&lt;/div&gt;" style="strokeWidth=2;html=1;shape=mxgraph.flowchart.decision;whiteSpace=wrap;fillColor=#dae8fc;strokeColor=#6c8ebf;" vertex="1" parent="WIyWlLk6GJQsqaUBKTNV-1">
          <mxGeometry x="805" y="650" width="70" height="70" as="geometry" />
        </mxCell>
        <mxCell id="yMvP8_BPe6pXxx1UUFUf-82" style="edgeStyle=orthogonalEdgeStyle;rounded=0;orthogonalLoop=1;jettySize=auto;html=1;exitX=1;exitY=0.5;exitDx=0;exitDy=0;entryX=1;entryY=0.5;entryDx=0;entryDy=0;" edge="1" parent="WIyWlLk6GJQsqaUBKTNV-1" source="yMvP8_BPe6pXxx1UUFUf-39" target="VjtKjrZETDWxhtemE6Uw-55">
          <mxGeometry relative="1" as="geometry">
            <Array as="points">
              <mxPoint x="1060" y="415" />
              <mxPoint x="1060" y="320" />
            </Array>
          </mxGeometry>
        </mxCell>
        <mxCell id="yMvP8_BPe6pXxx1UUFUf-39" value="Display booked seats profit" style="shape=ext;double=1;rounded=0;whiteSpace=wrap;html=1;fillColor=#dae8fc;strokeColor=#6c8ebf;" vertex="1" parent="WIyWlLk6GJQsqaUBKTNV-1">
          <mxGeometry x="940" y="385" width="87" height="60" as="geometry" />
        </mxCell>
        <mxCell id="yMvP8_BPe6pXxx1UUFUf-58" style="edgeStyle=orthogonalEdgeStyle;rounded=0;orthogonalLoop=1;jettySize=auto;html=1;exitX=1;exitY=0.5;exitDx=0;exitDy=0;" edge="1" parent="WIyWlLk6GJQsqaUBKTNV-1" source="yMvP8_BPe6pXxx1UUFUf-41">
          <mxGeometry relative="1" as="geometry">
            <mxPoint x="1060" y="500" as="targetPoint" />
          </mxGeometry>
        </mxCell>
        <mxCell id="yMvP8_BPe6pXxx1UUFUf-41" value="Display bus" style="shape=ext;double=1;rounded=0;whiteSpace=wrap;html=1;fillColor=#dae8fc;strokeColor=#6c8ebf;" vertex="1" parent="WIyWlLk6GJQsqaUBKTNV-1">
          <mxGeometry x="940" y="565" width="87" height="60" as="geometry" />
        </mxCell>
        <mxCell id="yMvP8_BPe6pXxx1UUFUf-57" style="edgeStyle=orthogonalEdgeStyle;rounded=0;orthogonalLoop=1;jettySize=auto;html=1;exitX=1;exitY=0.5;exitDx=0;exitDy=0;" edge="1" parent="WIyWlLk6GJQsqaUBKTNV-1" source="yMvP8_BPe6pXxx1UUFUf-42">
          <mxGeometry relative="1" as="geometry">
            <mxPoint x="1060" y="410" as="targetPoint" />
          </mxGeometry>
        </mxCell>
        <mxCell id="yMvP8_BPe6pXxx1UUFUf-42" value="Display sorted seats" style="shape=ext;double=1;rounded=0;whiteSpace=wrap;html=1;fillColor=#dae8fc;strokeColor=#6c8ebf;" vertex="1" parent="WIyWlLk6GJQsqaUBKTNV-1">
          <mxGeometry x="940" y="475" width="87" height="60" as="geometry" />
        </mxCell>
        <mxCell id="yMvP8_BPe6pXxx1UUFUf-61" style="edgeStyle=orthogonalEdgeStyle;rounded=0;orthogonalLoop=1;jettySize=auto;html=1;exitX=0.5;exitY=1;exitDx=0;exitDy=0;entryX=0.5;entryY=0;entryDx=0;entryDy=0;entryPerimeter=0;" edge="1" parent="WIyWlLk6GJQsqaUBKTNV-1" source="yMvP8_BPe6pXxx1UUFUf-62" target="yMvP8_BPe6pXxx1UUFUf-65">
          <mxGeometry relative="1" as="geometry" />
        </mxCell>
        <mxCell id="yMvP8_BPe6pXxx1UUFUf-62" value="Customer" style="rounded=1;whiteSpace=wrap;html=1;fillColor=#ffe6cc;strokeColor=#d79b00;" vertex="1" parent="WIyWlLk6GJQsqaUBKTNV-1">
          <mxGeometry x="350" y="440" width="80" height="70" as="geometry" />
        </mxCell>
        <mxCell id="yMvP8_BPe6pXxx1UUFUf-63" style="edgeStyle=orthogonalEdgeStyle;rounded=0;orthogonalLoop=1;jettySize=auto;html=1;exitX=0.5;exitY=1;exitDx=0;exitDy=0;exitPerimeter=0;entryX=0.5;entryY=0;entryDx=0;entryDy=0;entryPerimeter=0;" edge="1" parent="WIyWlLk6GJQsqaUBKTNV-1" source="yMvP8_BPe6pXxx1UUFUf-65" target="yMvP8_BPe6pXxx1UUFUf-68">
          <mxGeometry relative="1" as="geometry" />
        </mxCell>
        <mxCell id="yMvP8_BPe6pXxx1UUFUf-64" style="edgeStyle=orthogonalEdgeStyle;rounded=0;orthogonalLoop=1;jettySize=auto;html=1;exitX=1;exitY=0.5;exitDx=0;exitDy=0;exitPerimeter=0;entryX=0;entryY=0.5;entryDx=0;entryDy=0;" edge="1" parent="WIyWlLk6GJQsqaUBKTNV-1" source="yMvP8_BPe6pXxx1UUFUf-65" target="yMvP8_BPe6pXxx1UUFUf-74">
          <mxGeometry relative="1" as="geometry" />
        </mxCell>
        <mxCell id="yMvP8_BPe6pXxx1UUFUf-65" value="choice == 1" style="strokeWidth=2;html=1;shape=mxgraph.flowchart.decision;whiteSpace=wrap;fillColor=#dae8fc;strokeColor=#6c8ebf;" vertex="1" parent="WIyWlLk6GJQsqaUBKTNV-1">
          <mxGeometry x="355" y="550" width="70" height="70" as="geometry" />
        </mxCell>
        <mxCell id="yMvP8_BPe6pXxx1UUFUf-66" style="edgeStyle=orthogonalEdgeStyle;rounded=0;orthogonalLoop=1;jettySize=auto;html=1;exitX=0.5;exitY=1;exitDx=0;exitDy=0;exitPerimeter=0;entryX=0.5;entryY=0;entryDx=0;entryDy=0;entryPerimeter=0;" edge="1" parent="WIyWlLk6GJQsqaUBKTNV-1" source="yMvP8_BPe6pXxx1UUFUf-68" target="yMvP8_BPe6pXxx1UUFUf-71">
          <mxGeometry relative="1" as="geometry" />
        </mxCell>
        <mxCell id="yMvP8_BPe6pXxx1UUFUf-67" style="edgeStyle=orthogonalEdgeStyle;rounded=0;orthogonalLoop=1;jettySize=auto;html=1;exitX=1;exitY=0.5;exitDx=0;exitDy=0;exitPerimeter=0;entryX=0;entryY=0.5;entryDx=0;entryDy=0;" edge="1" parent="WIyWlLk6GJQsqaUBKTNV-1" source="yMvP8_BPe6pXxx1UUFUf-68" target="yMvP8_BPe6pXxx1UUFUf-78">
          <mxGeometry relative="1" as="geometry" />
        </mxCell>
        <mxCell id="yMvP8_BPe6pXxx1UUFUf-68" value="choice == 2" style="strokeWidth=2;html=1;shape=mxgraph.flowchart.decision;whiteSpace=wrap;fillColor=#dae8fc;strokeColor=#6c8ebf;" vertex="1" parent="WIyWlLk6GJQsqaUBKTNV-1">
          <mxGeometry x="355" y="640" width="70" height="70" as="geometry" />
        </mxCell>
        <mxCell id="yMvP8_BPe6pXxx1UUFUf-69" style="edgeStyle=orthogonalEdgeStyle;rounded=0;orthogonalLoop=1;jettySize=auto;html=1;exitX=0.5;exitY=1;exitDx=0;exitDy=0;exitPerimeter=0;entryX=0.5;entryY=0;entryDx=0;entryDy=0;entryPerimeter=0;" edge="1" parent="WIyWlLk6GJQsqaUBKTNV-1" source="yMvP8_BPe6pXxx1UUFUf-71" target="yMvP8_BPe6pXxx1UUFUf-72">
          <mxGeometry relative="1" as="geometry" />
        </mxCell>
        <mxCell id="yMvP8_BPe6pXxx1UUFUf-70" style="edgeStyle=orthogonalEdgeStyle;rounded=0;orthogonalLoop=1;jettySize=auto;html=1;exitX=1;exitY=0.5;exitDx=0;exitDy=0;exitPerimeter=0;entryX=0;entryY=0.5;entryDx=0;entryDy=0;" edge="1" parent="WIyWlLk6GJQsqaUBKTNV-1" source="yMvP8_BPe6pXxx1UUFUf-71" target="yMvP8_BPe6pXxx1UUFUf-76">
          <mxGeometry relative="1" as="geometry" />
        </mxCell>
        <mxCell id="yMvP8_BPe6pXxx1UUFUf-71" value="&lt;div&gt;choice == 3&lt;/div&gt;" style="strokeWidth=2;html=1;shape=mxgraph.flowchart.decision;whiteSpace=wrap;fillColor=#dae8fc;strokeColor=#6c8ebf;" vertex="1" parent="WIyWlLk6GJQsqaUBKTNV-1">
          <mxGeometry x="355" y="730" width="70" height="70" as="geometry" />
        </mxCell>
        <mxCell id="yMvP8_BPe6pXxx1UUFUf-92" style="edgeStyle=orthogonalEdgeStyle;rounded=0;orthogonalLoop=1;jettySize=auto;html=1;exitX=1;exitY=0.5;exitDx=0;exitDy=0;exitPerimeter=0;entryX=0;entryY=0.5;entryDx=0;entryDy=0;" edge="1" parent="WIyWlLk6GJQsqaUBKTNV-1" source="yMvP8_BPe6pXxx1UUFUf-72" target="yMvP8_BPe6pXxx1UUFUf-91">
          <mxGeometry relative="1" as="geometry" />
        </mxCell>
        <mxCell id="yMvP8_BPe6pXxx1UUFUf-105" style="edgeStyle=orthogonalEdgeStyle;rounded=0;orthogonalLoop=1;jettySize=auto;html=1;exitX=0.5;exitY=1;exitDx=0;exitDy=0;exitPerimeter=0;entryX=0.5;entryY=0;entryDx=0;entryDy=0;entryPerimeter=0;" edge="1" parent="WIyWlLk6GJQsqaUBKTNV-1" source="yMvP8_BPe6pXxx1UUFUf-72" target="yMvP8_BPe6pXxx1UUFUf-90">
          <mxGeometry relative="1" as="geometry" />
        </mxCell>
        <mxCell id="yMvP8_BPe6pXxx1UUFUf-72" value="&lt;div&gt;choice == 4&lt;br&gt;&lt;/div&gt;" style="strokeWidth=2;html=1;shape=mxgraph.flowchart.decision;whiteSpace=wrap;fillColor=#dae8fc;strokeColor=#6c8ebf;" vertex="1" parent="WIyWlLk6GJQsqaUBKTNV-1">
          <mxGeometry x="355" y="820" width="70" height="70" as="geometry" />
        </mxCell>
        <mxCell id="yMvP8_BPe6pXxx1UUFUf-73" style="edgeStyle=orthogonalEdgeStyle;rounded=0;orthogonalLoop=1;jettySize=auto;html=1;exitX=1;exitY=0.5;exitDx=0;exitDy=0;entryX=1;entryY=0.5;entryDx=0;entryDy=0;" edge="1" parent="WIyWlLk6GJQsqaUBKTNV-1" source="yMvP8_BPe6pXxx1UUFUf-74" target="yMvP8_BPe6pXxx1UUFUf-62">
          <mxGeometry relative="1" as="geometry">
            <mxPoint x="610" y="470" as="targetPoint" />
            <Array as="points">
              <mxPoint x="610" y="585" />
              <mxPoint x="610" y="475" />
            </Array>
          </mxGeometry>
        </mxCell>
        <mxCell id="yMvP8_BPe6pXxx1UUFUf-74" value="Book&amp;nbsp; seat" style="shape=ext;double=1;rounded=0;whiteSpace=wrap;html=1;fillColor=#dae8fc;strokeColor=#6c8ebf;" vertex="1" parent="WIyWlLk6GJQsqaUBKTNV-1">
          <mxGeometry x="490" y="555" width="87" height="60" as="geometry" />
        </mxCell>
        <mxCell id="yMvP8_BPe6pXxx1UUFUf-75" style="edgeStyle=orthogonalEdgeStyle;rounded=0;orthogonalLoop=1;jettySize=auto;html=1;exitX=1;exitY=0.5;exitDx=0;exitDy=0;" edge="1" parent="WIyWlLk6GJQsqaUBKTNV-1" source="yMvP8_BPe6pXxx1UUFUf-76">
          <mxGeometry relative="1" as="geometry">
            <mxPoint x="610" y="670" as="targetPoint" />
          </mxGeometry>
        </mxCell>
        <mxCell id="yMvP8_BPe6pXxx1UUFUf-76" value="&lt;div&gt;Display&amp;nbsp; bus&lt;/div&gt;" style="shape=ext;double=1;rounded=0;whiteSpace=wrap;html=1;fillColor=#dae8fc;strokeColor=#6c8ebf;" vertex="1" parent="WIyWlLk6GJQsqaUBKTNV-1">
          <mxGeometry x="490" y="735" width="87" height="60" as="geometry" />
        </mxCell>
        <mxCell id="yMvP8_BPe6pXxx1UUFUf-77" style="edgeStyle=orthogonalEdgeStyle;rounded=0;orthogonalLoop=1;jettySize=auto;html=1;exitX=1;exitY=0.5;exitDx=0;exitDy=0;" edge="1" parent="WIyWlLk6GJQsqaUBKTNV-1" source="yMvP8_BPe6pXxx1UUFUf-78">
          <mxGeometry relative="1" as="geometry">
            <mxPoint x="610" y="580" as="targetPoint" />
          </mxGeometry>
        </mxCell>
        <mxCell id="yMvP8_BPe6pXxx1UUFUf-78" value="&lt;div&gt;Find booking&lt;/div&gt;" style="shape=ext;double=1;rounded=0;whiteSpace=wrap;html=1;fillColor=#dae8fc;strokeColor=#6c8ebf;" vertex="1" parent="WIyWlLk6GJQsqaUBKTNV-1">
          <mxGeometry x="490" y="645" width="87" height="60" as="geometry" />
        </mxCell>
        <mxCell id="yMvP8_BPe6pXxx1UUFUf-89" style="edgeStyle=orthogonalEdgeStyle;rounded=0;orthogonalLoop=1;jettySize=auto;html=1;exitX=0;exitY=0.25;exitDx=0;exitDy=0;" edge="1" parent="WIyWlLk6GJQsqaUBKTNV-1" source="yMvP8_BPe6pXxx1UUFUf-83">
          <mxGeometry relative="1" as="geometry">
            <mxPoint x="440" y="342" as="targetPoint" />
          </mxGeometry>
        </mxCell>
        <mxCell id="yMvP8_BPe6pXxx1UUFUf-83" value="Break" style="shape=ext;double=1;rounded=0;whiteSpace=wrap;html=1;fillColor=#dae8fc;strokeColor=#6c8ebf;" vertex="1" parent="WIyWlLk6GJQsqaUBKTNV-1">
          <mxGeometry x="700" y="330" width="57" height="45" as="geometry" />
        </mxCell>
        <mxCell id="yMvP8_BPe6pXxx1UUFUf-103" style="edgeStyle=orthogonalEdgeStyle;rounded=0;orthogonalLoop=1;jettySize=auto;html=1;exitX=0;exitY=0.5;exitDx=0;exitDy=0;exitPerimeter=0;entryX=0.75;entryY=1;entryDx=0;entryDy=0;" edge="1" parent="WIyWlLk6GJQsqaUBKTNV-1" source="yMvP8_BPe6pXxx1UUFUf-90" target="yMvP8_BPe6pXxx1UUFUf-102">
          <mxGeometry relative="1" as="geometry" />
        </mxCell>
        <mxCell id="yMvP8_BPe6pXxx1UUFUf-90" value="&lt;div&gt;choice == 0&lt;br&gt;&lt;/div&gt;" style="strokeWidth=2;html=1;shape=mxgraph.flowchart.decision;whiteSpace=wrap;fillColor=#dae8fc;strokeColor=#6c8ebf;" vertex="1" parent="WIyWlLk6GJQsqaUBKTNV-1">
          <mxGeometry x="355" y="910" width="70" height="70" as="geometry" />
        </mxCell>
        <mxCell id="yMvP8_BPe6pXxx1UUFUf-93" style="edgeStyle=orthogonalEdgeStyle;rounded=0;orthogonalLoop=1;jettySize=auto;html=1;exitX=1;exitY=0.5;exitDx=0;exitDy=0;" edge="1" parent="WIyWlLk6GJQsqaUBKTNV-1" source="yMvP8_BPe6pXxx1UUFUf-91">
          <mxGeometry relative="1" as="geometry">
            <mxPoint x="610" y="765" as="targetPoint" />
          </mxGeometry>
        </mxCell>
        <mxCell id="yMvP8_BPe6pXxx1UUFUf-91" value="Cancel booking" style="shape=ext;double=1;rounded=0;whiteSpace=wrap;html=1;fillColor=#dae8fc;strokeColor=#6c8ebf;" vertex="1" parent="WIyWlLk6GJQsqaUBKTNV-1">
          <mxGeometry x="492.5" y="825" width="87" height="60" as="geometry" />
        </mxCell>
        <mxCell id="yMvP8_BPe6pXxx1UUFUf-101" style="edgeStyle=orthogonalEdgeStyle;rounded=0;orthogonalLoop=1;jettySize=auto;html=1;entryX=0.5;entryY=0;entryDx=0;entryDy=0;" edge="1" parent="WIyWlLk6GJQsqaUBKTNV-1" source="yMvP8_BPe6pXxx1UUFUf-94" target="yMvP8_BPe6pXxx1UUFUf-62">
          <mxGeometry relative="1" as="geometry" />
        </mxCell>
        <mxCell id="yMvP8_BPe6pXxx1UUFUf-94" value="2" style="text;html=1;strokeColor=none;fillColor=none;align=center;verticalAlign=middle;whiteSpace=wrap;rounded=0;" vertex="1" parent="WIyWlLk6GJQsqaUBKTNV-1">
          <mxGeometry x="382.5" y="375" width="15" height="20" as="geometry" />
        </mxCell>
        <mxCell id="yMvP8_BPe6pXxx1UUFUf-104" style="edgeStyle=orthogonalEdgeStyle;rounded=0;orthogonalLoop=1;jettySize=auto;html=1;exitX=0.75;exitY=0;exitDx=0;exitDy=0;entryX=0.25;entryY=1;entryDx=0;entryDy=0;" edge="1" parent="WIyWlLk6GJQsqaUBKTNV-1" source="yMvP8_BPe6pXxx1UUFUf-102" target="VjtKjrZETDWxhtemE6Uw-12">
          <mxGeometry relative="1" as="geometry" />
        </mxCell>
        <mxCell id="yMvP8_BPe6pXxx1UUFUf-102" value="Break" style="shape=ext;double=1;rounded=0;whiteSpace=wrap;html=1;fillColor=#dae8fc;strokeColor=#6c8ebf;" vertex="1" parent="WIyWlLk6GJQsqaUBKTNV-1">
          <mxGeometry x="288" y="445" width="57" height="45" as="geometry" />
        </mxCell>
        <mxCell id="yMvP8_BPe6pXxx1UUFUf-112" value="Break" style="shape=ext;double=1;rounded=0;whiteSpace=wrap;html=1;fillColor=#dae8fc;strokeColor=#6c8ebf;" vertex="1" parent="WIyWlLk6GJQsqaUBKTNV-1">
          <mxGeometry x="135" y="297.5" width="57" height="45" as="geometry" />
        </mxCell>
      </root>
    </mxGraphModel>
  </diagram>
</mxfile>
